#!OML:ASF F:\VICON\USERDATA\INSTALL\rory3\rory3.ASF
:FULLY-SPECIFIED
:DEGREES
4288
root 7.19477 17.5404 -10.4066 19.1976 -9.93981 11.037
lowerback 19.163 0.15891 1.56439
upperback 6.20901 0.849983 7.11934
thorax -4.10479 0.363079 6.58701
lowerneck -10.1963 -11.8257 -11.7131
upperneck 26.4235 -16.9496 9.65189
head 12.2711 -7.64454 3.04384
rclavicle 9.54166e-015 1.27222e-014
rhumerus 8.8851 -2.38849 -78.7692
rradius 43.8328
rwrist -42.4321
rhand -34.2866 -25.4893
rfingers 7.12502
rthumb -7.4562 -55.3379
lclavicle 9.54166e-015 1.27222e-014
lhumerus 1.2668 -40.8586 95.804
lradius 57.1286
lwrist 18.5083
lhand -14.9951 45.0901
lfingers 7.12502
lthumb 11.1694 -1725.23
rfemur -50.8762 -12.2356 6.30101
rtibia 33.7577
rfoot -6.43843 -13.8438
rtoes 11.9513
lfemur -21.5658 -1.40229 -26.5524
ltibia 21.0549
lfoot -16.5263 -5.34975
ltoes -19.0396
4289
root 7.12367 17.546 -10.3438 19.2068 -9.82601 10.8637
lowerback 19.0631 0.109311 1.75235
upperback 6.26622 0.808734 7.10693
thorax -3.98402 0.341252 6.47025
lowerneck -10.2917 -11.7513 -11.3845
upperneck 26.5616 -16.8445 9.4021
head 12.27 -7.58791 2.91679
rclavicle -6.36111e-015 -5.40694e-014
rhumerus 9.92184 -3.82192 -78.3418
rradius 44.0966
rwrist -42.1786
rhand -34.1059 -25.0769
rfingers 7.12502
rthumb -7.28176 -54.9316
lclavicle -6.36111e-015 -5.40694e-014
lhumerus 1.61176 -40.9459 95.2547
lradius 58.8226
lwrist 19.5188
lhand -14.7726 45.3203
lfingers 7.12502
lthumb 11.384 -1725.01
rfemur -50.8966 -12.4085 6.88411
rtibia 34.2122
rfoot -6.24536 -13.2413
rtoes 12.7572
lfemur -21.2193 -1.80273 -26.05
ltibia 20.8966
lfoot -16.3101 -4.95807
ltoes -18.3683
4290
root 7.05206 17.5509 -10.2846 19.277 -9.56989 10.7174
lowerback 18.9249 0.0442839 1.95426
upperback 6.26143 0.754521 7.12345
thorax -3.90911 0.314909 6.38052
lowerneck -10.3398 -11.7076 -11.0639
upperneck 26.7528 -16.7856 9.1286
head 12.2856 -7.55486 2.77665
rclavicle -3.18055e-015 -6.99722e-014
rhumerus 10.7224 -5.22439 -77.9181
rradius 44.5218
rwrist -42.0586
rhand -33.9114 -24.818
rfingers 7.12502
rthumb -7.09407 -54.6791
lclavicle -3.18055e-015 -6.99722e-014
lhumerus 1.65803 -41.001 94.9323
lradius 60.5369
lwrist 20.0558
lhand -14.5333 45.2735
lfingers 7.12502
lthumb 11.6149 -1725.07
rfemur -50.9047 -12.5224 7.3541
rtibia 34.6352
rfoot -6.36492 -12.7522
rtoes 12.5716
lfemur -21.0483 -2.21337 -25.5689
ltibia 20.9178
lfoot -16.1214 -4.60638
ltoes -18.705
4291
root 6.97875 17.5619 -10.228 19.3071 -9.27474 10.618
lowerback 18.8411 -0.0470422 2.05371
upperback 6.22451 0.656127 7.18291
thorax -3.89462 0.267467 6.40929
lowerneck -10.2994 -11.6595 -10.9974
upperneck 26.9509 -16.7386 9.06155
head 12.3367 -7.5317 2.75356
rclavicle -2.8625e-014 3.81667e-014
rhumerus 11.2685 -6.20529 -77.4174
rradius 45.1706
rwrist -42.0538
rhand -33.9613 -24.8604
rfingers 7.12502
rthumb -7.14224 -54.7199
lclavicle -2.8625e-014 3.81667e-014
lhumerus 1.35992 -40.7257 94.8923
lradius 62.2602
lwrist 20.0589
lhand -14.1698 45.0257
lfingers 7.12502
lthumb 11.9653 -1725.34
rfemur -50.824 -12.5892 7.72308
rtibia 35.0541
rfoot -6.82985 -12.5439
rtoes 12.7965
lfemur -20.7965 -2.5652 -25.186
ltibia 21.0307
lfoot -16.0184 -4.01646
ltoes -20.7089
4292
root 6.90219 17.5723 -10.1735 19.2795 -8.99849 10.5206
lowerback 18.8933 -0.151917 1.99633
upperback 6.15175 0.528757 7.33616
thorax -3.98882 0.206148 6.64364
lowerneck -10.2361 -11.5817 -11.2024
upperneck 27.1894 -16.6244 9.07365
head 12.428 -7.49683 2.8138
rclavicle 6.04305e-014 6.36111e-014
rhumerus 11.6278 -6.74689 -76.8288
rradius 45.9679
rwrist -42.2686
rhand -34.1904 -25.0535
rfingers 7.12502
rthumb -7.36331 -54.9053
lclavicle 6.04305e-014 6.36111e-014
lhumerus 0.8422 -40.0768 95.0744
lradius 64.0338
lwrist 20.1666
lhand -13.3828 45.3155
lfingers 7.12502
lthumb 12.7242 -1725.09
rfemur -50.6721 -12.585 8.07035
rtibia 35.4441
rfoot -7.27485 -12.5116
rtoes 13.0661
lfemur -20.6289 -3.00502 -24.7706
ltibia 21.283
lfoot -15.9096 -3.43173
ltoes -20.4193
4293
root 6.82449 17.5802 -10.1193 19.288 -8.754 10.46
lowerback 18.9212 -0.206562 1.92452
upperback 6.08661 0.458499 7.42835
thorax -4.06715 0.173219 6.80574
lowerneck -10.1387 -11.5449 -11.2018
upperneck 27.2026 -16.5835 9.07558
head 12.4084 -7.48259 2.82772
rclavicle -6.04305e-014 -9.54166e-014
rhumerus 11.8579 -7.36664 -76.392
rradius 46.8396
rwrist -42.4256
rhand -34.2221 -25.0994
rfingers 7.12502
rthumb -7.394 -54.9502
lclavicle -6.04305e-014 -9.54166e-014
lhumerus 0.41261 -39.6376 95.0405
lradius 65.8528
lwrist 20.6378
lhand -12.8578 45.9454
lfingers 7.12502
lthumb 13.2303 -1724.49
rfemur -50.5694 -12.5911 8.41002
rtibia 35.7829
rfoot -7.49084 -12.4603
rtoes 12.3214
lfemur -20.6553 -3.51757 -24.3725
ltibia 21.64
lfoot -15.6185 -2.94831
ltoes -18.8847
4294
root 6.7501 17.5927 -10.0643 19.3672 -8.56779 10.4073
lowerback 18.9025 -0.231747 1.89723
upperback 5.96083 0.430564 7.4195
thorax -4.1902 0.163197 6.82007
lowerneck -9.83281 -11.533 -11.0435
upperneck 27.0705 -16.629 9.13783
head 12.2889 -7.49646 2.8368
rclavicle -6.36111e-015 -4.77083e-014
rhumerus 11.9006 -8.02899 -76.1333
rradius 47.6891
rwrist -42.5186
rhand -34.1974 -25.1707
rfingers 7.12502
rthumb -7.37006 -55.0223
lclavicle -6.36111e-015 -4.77083e-014
lhumerus -0.222449 -39.3663 94.9228
lradius 67.628
lwrist 20.8227
lhand -12.7416 46.4707
lfingers 7.12502
lthumb 13.3423 -1723.98
rfemur -50.5362 -12.6265 8.76043
rtibia 36.0725
rfoot -7.64576 -12.3836
rtoes 11.1992
lfemur -20.7365 -3.93346 -24.0667
ltibia 22.0723
lfoot -15.3281 -2.35453
ltoes -18.6632
4295
root 6.67804 17.6089 -10.0058 19.5112 -8.39863 10.3258
lowerback 18.8281 -0.244712 1.98085
upperback 5.80599 0.434007 7.358
thorax -4.31781 0.169189 6.70318
lowerneck -9.77378 -11.5872 -10.8271
upperneck 27.226 -16.7891 9.17922
head 12.3413 -7.53957 2.79532
rclavicle -1.11319e-014 -4.13472e-014
rhumerus 11.7914 -8.5784 -75.9133
rradius 48.6079
rwrist -42.6777
rhand -34.0695 -25.2613
rfingers 7.12502
rthumb -7.24666 -55.1172
lclavicle -1.11319e-014 -4.13472e-014
lhumerus -1.04971 -39.1885 94.8714
lradius 69.2446
lwrist 20.6837
lhand -12.5118 46.7171
lfingers 7.12502
lthumb 13.5638 -1723.74
rfemur -50.5227 -12.7156 9.15809
rtibia 36.3087
rfoot -7.93098 -12.2991
rtoes 11.3068
lfemur -20.9773 -4.36942 -23.7652
ltibia 22.6759
lfoot -15.113 -1.58498
ltoes -18.8846
4296
root 6.60766 17.6273 -9.94952 19.6249 -8.19001 10.3378
lowerback 18.6894 -0.306554 2.05595
upperback 5.73997 0.359236 7.25978
thorax -4.30772 0.134319 6.56463
lowerneck -9.97415 -11.6544 -10.6527
upperneck 27.4786 -16.9683 9.27728
head 12.4992 -7.5753 2.76218
rclavicle 1.59028e-014 -9.22361e-014
rhumerus 11.7033 -8.79455 -75.6932
rradius 49.6277
rwrist -43.1006
rhand -34.1776 -25.2092
rfingers 7.12502
rthumb -7.35099 -55.0615
lclavicle 1.59028e-014 -9.22361e-014
lhumerus -1.6689 -39.0106 94.6532
lradius 70.6327
lwrist 20.6827
lhand -12.3131 46.796
lfingers 7.12502
lthumb 13.7553 -1723.68
rfemur -50.4141 -12.8319 9.41394
rtibia 36.4805
rfoot -8.31383 -12.195
rtoes 12.5288
lfemur -21.3046 -4.8447 -23.5666
ltibia 23.4969
lfoot -14.7752 -0.829055
ltoes -19.0098
4297
root 6.53469 17.6478 -9.89868 19.6645 -7.99957 10.4062
lowerback 18.5801 -0.366541 1.97576
upperback 5.70777 0.260459 7.20005
thorax -4.27516 0.086964 6.56457
lowerneck -9.8584 -11.6828 -10.6861
upperneck 27.428 -17.0872 9.5459
head 12.5035 -7.6075 2.8524
rclavicle 1.27222e-014 0
rhumerus 11.5327 -8.70339 -75.4456
rradius 50.7006
rwrist -43.5405
rhand -34.4714 -25.3042
rfingers 7.12502
rthumb -7.63459 -55.1464
lclavicle 1.27222e-014 0
lhumerus -2.30545 -38.7025 94.4847
lradius 71.8708
lwrist 20.7974
lhand -12.0661 47.0924
lfingers 7.12502
lthumb 13.9933 -1723.4
rfemur -50.2353 -12.8862 9.57795
rtibia 36.6015
rfoot -8.67232 -12.1318
rtoes 12.8854
lfemur -21.5931 -5.1184 -23.4986
ltibia 24.4275
lfoot -14.3124 -0.234105
ltoes -19.5822
4298
root 6.46253 17.6667 -9.84948 19.6485 -7.72825 10.4142
lowerback 18.5329 -0.426813 2.01835
upperback 5.67951 0.187207 7.1428
thorax -4.27332 0.0522659 6.49183
lowerneck -9.70478 -11.7408 -10.7153
upperneck 27.3139 -17.2545 9.85099
head 12.485 -7.65989 2.94876
rclavicle 2.8625e-014 -1.59028e-015
rhumerus 11.1884 -8.57033 -75.2101
rradius 51.7965
rwrist -43.8141
rhand -34.522 -25.3616
rfingers 7.12502
rthumb -7.6834 -55.202
lclavicle 2.8625e-014 -1.59028e-015
lhumerus -3.11656 -38.4352 94.3874
lradius 73.0886
lwrist 20.914
lhand -11.702 47.5733
lfingers 7.12502
lthumb 14.3442 -1722.94
rfemur -49.9706 -12.8504 9.73071
rtibia 36.6954
rfoot -9.03424 -12.2129
rtoes 12.4185
lfemur -21.8698 -5.37153 -23.3832
ltibia 25.3792
lfoot -13.9021 0.184187
ltoes -20.0899
4299
root 6.39622 17.6838 -9.79476 19.6432 -7.4792 10.4507
lowerback 18.3673 -0.444315 2.14158
upperback 5.71069 0.167746 7.02092
thorax -4.15053 0.0423258 6.28407
lowerneck -9.64771 -11.8589 -10.5452
upperneck 27.1148 -17.5147 10.1151
head 12.4387 -7.73664 2.97663
rclavicle 1.27222e-014 -3.49861e-014
rhumerus 10.7471 -8.47164 -75.0131
rradius 52.9645
rwrist -44.1336
rhand -34.5065 -25.422
rfingers 7.12502
rthumb -7.66845 -55.263
lclavicle 1.27222e-014 -3.49861e-014
lhumerus -3.85683 -38.3246 94.2253
lradius 74.1249
lwrist 20.9587
lhand -11.4924 47.8243
lfingers 7.12502
lthumb 14.5461 -1722.71
rfemur -49.7113 -12.948 9.89141
rtibia 36.753
rfoot -9.27599 -12.163
rtoes 12.4781
lfemur -22.1681 -5.6654 -23.3431
ltibia 26.3211
lfoot -13.6831 0.680197
ltoes -19.7298
4300
root 6.3297 17.6982 -9.73449 19.5386 -7.48207 10.4664
lowerback 18.1867 -0.385022 2.0535
upperback 5.80241 0.206616 6.94331
thorax -3.96088 0.0590772 6.23393
lowerneck -9.49516 -11.918 -10.4254
upperneck 26.9096 -17.6559 10.2834
head 12.3499 -7.78193 3.00375
rclavicle 0 2.22639e-014
rhumerus 10.2806 -8.07088 -74.8453
rradius 54.0613
rwrist -44.481
rhand -34.5553 -25.453
rfingers 7.12502
rthumb -7.71555 -55.2922
lclavicle 0 2.22639e-014
lhumerus -4.6741 -37.9275 94.2041
lradius 74.9024
lwrist 20.9262
lhand -11.8029 47.6089
lfingers 7.12502
lthumb 14.247 -1722.9
rfemur -49.3846 -12.9319 10.0737
rtibia 36.7585
rfoot -9.36136 -11.9837
rtoes 12.4492
lfemur -22.301 -5.60637 -23.4527
ltibia 27.2307
lfoot -13.5396 1.39863
ltoes -19.8483
4301
root 6.2611 17.7164 -9.66767 19.2658 -7.68617 10.343
lowerback 18.1611 -0.275194 1.87979
upperback 5.90335 0.309291 6.95489
thorax -3.84953 0.10632 6.32271
lowerneck -9.33522 -11.9326 -10.5166
upperneck 26.9205 -17.6954 10.3584
head 12.3455 -7.80645 3.04797
rclavicle 2.22639e-014 3.02153e-014
rhumerus 9.69064 -7.31971 -74.6824
rradius 55.0686
rwrist -44.9109
rhand -34.4122 -25.3299
rfingers 7.12502
rthumb -7.57748 -55.1741
lclavicle 2.22639e-014 3.02153e-014
lhumerus -5.77442 -37.2683 94.4287
lradius 75.4892
lwrist 20.7826
lhand -12.286 47.1814
lfingers 7.12502
lthumb 13.7814 -1723.3
rfemur -48.8685 -12.7002 10.3685
rtibia 36.7445
rfoot -9.51643 -11.7804
rtoes 12.2142
lfemur -22.1166 -5.10807 -23.5598
ltibia 28.0085
lfoot -13.2798 2.02583
ltoes -20.9912
4302
root 6.20043 17.7387 -9.60665 19.1184 -7.54856 10.1016
lowerback 18.1342 -0.263619 2.06262
upperback 5.92321 0.356481 7.02791
thorax -3.81779 0.128884 6.28604
lowerneck -9.26337 -11.9887 -10.6044
upperneck 26.9832 -17.7967 10.436
head 12.3882 -7.85138 3.07629
rclavicle 6.36111e-015 -1.08139e-013
rhumerus 9.03327 -6.57331 -74.6138
rradius 56.0182
rwrist -45.257
rhand -34.2428 -25.1625
rfingers 7.12502
rthumb -7.41396 -55.0126
lclavicle 6.36111e-015 -1.08139e-013
lhumerus -6.94629 -36.7235 94.7039
lradius 75.975
lwrist 20.7453
lhand -12.1714 47.356
lfingers 7.12502
lthumb 13.8919 -1723.13
rfemur -48.3735 -12.6657 10.8135
rtibia 36.7335
rfoot -9.81579 -11.7014
rtoes 11.8781
lfemur -22.135 -4.97738 -23.4047
ltibia 28.6484
lfoot -13.1311 2.15768
ltoes -20.3227
